<svg viewBox="571.2645 400.9753 387.471 97.0494" width="5000" height="1252.3440463931495" xmlns="http://www.w3.org/2000/svg" xmlns:xlink="http://www.w3.org/1999/xlink" preserveAspectRatio="none"><defs></defs><style>.aD6z1nYkhcolor {fill:#FFFFFF;fill-opacity:1;}.aIptOCySncolors-0 {fill:#FFFFFF;fill-opacity:1;}.atBXipXk0bfillColor {fill:#FFFFFF;fill-opacity:1;}.shapeStroke-str {stroke:#D9D9D9;stroke-opacity:1;}</style><g opacity="1" transform="rotate(0 571.2645 412.1981)">
<svg width="74.6534" height="74.6038" x="571.2645" y="412.1981" version="1.1" preserveAspectRatio="none" viewBox="0.35768795013427734 0.3910655975341797 99.2838134765625 99.21780395507812">
  <g transform="matrix(1 0 0 1 0 0)" class="aIptOCySncolors-0"><path d="M10.342,9.197l-0.244,0.244C-2.174,21.714-2.956,40.573,8.356,51.885l39.132,39.132  c11.627,11.628,31.897,11.424,43.754-0.434l0.24-0.24c11.42-11.42,10.779-29.622-1.461-41.861L50.891,9.35  C39.003-2.538,22.141-2.601,10.342,9.197z M87.404,51.1c10.252,10.251,11.713,26.372,1.461,36.626l-0.24,0.24  c-10.252,10.252-28.27,10.685-38.52,0.434L10.973,49.267C0.724,39.018,2.465,22.309,12.716,12.059l0.156-0.156l0.044-0.044  c10.249-10.25,25.106-10.141,35.356,0.109L87.404,51.1z"></path><path d="M68.553,67.604c0.051-1.259,0.137-2.511,0.217-3.788c0.043-0.68,0.088-1.357,0.125-2.04c0.043-0.776,0.08-1.551,0.104-2.331  c0.213-7.107-0.637-14.366-7.811-21.539c-7.158-7.158-14.413-8.021-21.522-7.807c-0.049,1.621-0.143,3.18-0.236,4.664  c-0.026,0.401,0.022,0.864-0.001,1.253c4.166-0.161,8.052,0.172,11.666,1.792L38.758,50.146c-1.62-3.615-1.953-7.5-1.792-11.667  c0.031-0.769,0.035-1.583,0.081-2.381c0.029-0.476,0.042-0.974,0.071-1.462c0.09-1.435,0.172-2.917,0.222-4.424  c0.027-0.77,0.034-1.555,0.033-2.343c-0.011-5.706-0.889-11.891-4.846-18.501c-0.829-1.381-2.621-1.833-4.003-1.005  c-0.211,0.126-0.399,0.274-0.566,0.44c-0.921,0.923-1.06,2.467-0.359,3.638c0.938,1.567,1.466,2.9,2.305,4.679L18.069,28.954  c-1.778-0.838-3.111-1.369-4.678-2.306c-1.171-0.701-2.675-0.525-3.6,0.398c-0.166,0.167-0.334,0.335-0.461,0.547  c-0.828,1.383-0.389,3.164,0.994,3.991c6.61,3.957,12.788,4.829,18.494,4.839c0.042-0.778,0.084-1.552,0.133-2.313  c0.074-1.198,0.041-2.471,0.091-3.624c-2.534,0.015-4.784,0.129-7.751-0.829l9.315-9.315c0.958,2.968,0.843,5.215,0.83,7.75  c-0.004,0.778,0.026,1.609-0.004,2.389c-0.052,1.233-0.102,2.497-0.181,3.746c-0.043,0.708-0.071,1.43-0.112,2.142  c-0.043,0.777-0.071,1.561-0.096,2.341c-0.215,7.11,0.652,14.371,7.81,21.527c7.174,7.174,14.434,8.027,21.543,7.813  c0.045-1.642,0.141-3.221,0.232-4.724c0.023-0.38,0.15-0.646,0.172-1.017c-3.861,0.148-7.691-0.34-10.685-1.274l11.868-11.869  c0.936,2.992,1.424,6.824,1.275,10.683c-0.029,0.769-0.119,1.495-0.166,2.295c-0.027,0.453-0.082,0.887-0.109,1.351  c-0.09,1.457-0.191,2.938-0.24,4.469c-0.023,0.77-0.041,1.543-0.035,2.331c0.029,5.653,0.934,11.762,4.908,18.267  c0.84,1.375,2.635,1.806,4.01,0.967c0.201-0.125,0.381-0.27,0.541-0.428c0.932-0.932,1.236-2.315,0.52-3.489  c-0.744-1.218-1.447-2.51-1.766-3.501l12.137-12.138c0.992,0.317,2.283,1.021,3.502,1.763c1.174,0.72,2.604,0.462,3.537-0.47  c0.16-0.161,0.279-0.366,0.402-0.568c0.84-1.375,0.396-3.181-0.98-4.021c-6.504-3.975-12.629-4.894-18.281-4.924  c-0.039,0.745-0.082,1.487-0.127,2.218c-0.076,1.229-0.197,2.379-0.246,3.559c2.816-0.003,5.438,0.038,8.453,0.95l-9.889,9.888  c-0.912-3.014-0.953-5.636-0.949-8.45C68.48,69.139,68.525,68.385,68.553,67.604z M46.754,59.164  c-0.886-0.423-2.633-1.91-3.924-3.201c-1.057-1.057-1.589-1.757-2.74-3.222l13.6-13.601c1.465,1.152,2.166,1.685,3.223,2.74  c1.293,1.292,2.777,3.038,3.201,3.924L46.754,59.164z"></path></g>
</svg>
</g><g opacity="1" transform="rotate(0 686.225 412.1733)">
<svg width="272.5105" height="74.6534" x="686.225" y="412.1733" version="1.1" preserveAspectRatio="none" viewBox="2.4 -28.48 105.72 28.96">
  <g transform="matrix(1 0 0 1 0 0)" class="aD6z1nYkhcolor"><path d="M30.28 0L30.28-12.48L22.36-12.48L22.36-10.84L26.84-10.84L26.84-3.60Q25.04-2.44 23.16-1.88Q21.28-1.32 18.88-1.32L18.88-1.32Q15.72-1.32 13.36-2.28Q11-3.24 9.44-4.94Q7.88-6.64 7.10-8.98Q6.32-11.32 6.32-14.12L6.32-14.12Q6.32-16.88 7.06-19.20Q7.80-21.52 9.28-23.20Q10.76-24.88 12.90-25.80Q15.04-26.72 17.88-26.72L17.88-26.72Q19.76-26.72 21.40-26.32Q23.04-25.92 24.32-25.28Q25.60-24.64 26.42-23.82Q27.24-23 27.48-22.16L27.48-22.16L30.36-22.16Q30-23.04 29.14-24.14Q28.28-25.24 26.80-26.20Q25.32-27.16 23.14-27.82Q20.96-28.48 18-28.48L18-28.48Q14.60-28.48 11.74-27.52Q8.88-26.56 6.80-24.76Q4.72-22.96 3.56-20.34Q2.40-17.72 2.40-14.40L2.40-14.40Q2.40-11.56 3.30-8.90Q4.20-6.24 6.06-4.14Q7.92-2.04 10.80-0.78Q13.68 0.48 17.68 0.48L17.68 0.48Q20.68 0.48 23-0.18Q25.32-0.84 26.84-1.64L26.84-1.64L26.84 0L30.28 0Z M44.20 0L47.84 0L47.84-25.80L58.56-25.80L58.56-28L33.48-28L33.48-25.80L44.20-25.80L44.20 0Z M73.24-28L64.16-28L64.16 0L67.80 0L67.80-12.36L69.56-12.36Q70.68-12.36 71.42-12.16Q72.16-11.96 72.76-11.48Q73.36-11 73.88-10.24Q74.40-9.48 75.12-8.36L75.12-8.36L78.28-3.68Q78.88-2.76 79.46-2Q80.04-1.24 80.72-0.70Q81.40-0.16 82.26 0.16Q83.12 0.48 84.32 0.48L84.32 0.48Q85.20 0.48 85.76 0.40Q86.32 0.32 86.88 0L86.88 0L86.88-1.48Q86.68-1.44 86.48-1.42Q86.28-1.40 86.08-1.40L86.08-1.40Q85.24-1.40 84.60-1.64Q83.96-1.88 83.40-2.34Q82.84-2.80 82.32-3.46Q81.80-4.12 81.24-4.96L81.24-4.96Q79.56-7.40 78.64-8.86Q77.72-10.32 77.18-11.12Q76.64-11.92 76.30-12.28Q75.96-12.64 75.48-12.88L75.48-12.88L75.08-13.08L75.08-13.24Q77-13.36 78.38-14.08Q79.76-14.80 80.64-15.88Q81.52-16.96 81.92-18.22Q82.32-19.48 82.32-20.68L82.32-20.68Q82.32-21.76 81.90-23.04Q81.48-24.32 80.46-25.42Q79.44-26.52 77.68-27.26Q75.92-28 73.24-28L73.24-28ZM67.80-14.16L67.80-26.24L71.84-26.24Q73.36-26.24 74.58-25.80Q75.80-25.36 76.68-24.58Q77.56-23.80 78.02-22.72Q78.48-21.64 78.48-20.36L78.48-20.36Q78.48-19.28 78.06-18.18Q77.64-17.08 76.80-16.18Q75.96-15.28 74.74-14.72Q73.52-14.16 71.92-14.16L71.92-14.16L67.80-14.16Z M91.68 0L97.92-8.28L104.04 0L108.12 0L99.96-10.96L106.68-20L104.36-20L98.80-12.52L93.32-20L89.28-20L96.76-9.84L89.32 0L91.68 0Z"/></g>
</svg>
</g><g opacity="1" transform="rotate(0 660.0963 400.9753)">
<svg width="2.2396" height="97.0494" x="660.0963" y="400.9753" version="1.1" preserveAspectRatio="none" viewBox="0 0 2.2396 97.0494">
  <rect x="0" y="0" width="2.2396" height="97.0494" class="atBXipXk0bfillColor shapeStroke-str" style="stroke-width:0;" rx="0px" ry="0px" />
</svg>
</g></svg>