<?xml version="1.0" encoding="utf-8"?>
<!-- Generator: Adobe Illustrator 22.0.1, SVG Export Plug-In . SVG Version: 6.00 Build 0)  -->
<svg version="1.1" id="Layer_1" xmlns="http://www.w3.org/2000/svg" xmlns:xlink="http://www.w3.org/1999/xlink" x="0px" y="0px"
	 viewBox="0 0 432 144" style="enable-background:new 0 0 432 144;" xml:space="preserve">
<style type="text/css">
	.st0{fill:#FFFFFF;stroke:#FDFDFE;stroke-width:4;stroke-miterlimit:10;}
	.st1{fill:#FFFFFF;}
	.st2{fill:#FFFFFF;stroke:#00A2B1;stroke-width:1.5;stroke-miterlimit:10;}
</style>
<path class="st0" d="M209.4,82.9"/>
<g>
	<path class="st1" d="M257.2,98.3l0,0.8c0,0.3-0.1,0.4-0.3,0.4c-0.1,0-0.3-0.2-0.5-0.7c-0.2-0.6-0.5-1-0.9-1.2
		c-0.6-0.4-1.4-0.7-2.4-0.7c-1.7,0-3,0.6-4,1.7c-0.9,1.2-1.4,2.6-1.4,4.2c0,1.6,0.5,2.9,1.4,4c1,1.2,2.4,1.8,4.3,1.8
		c1.1,0,1.8-0.2,2.3-0.6c0.2-0.2,0.4-0.8,0.4-1.7v-1.6c0-0.4,0-0.6-0.1-0.8c-0.1-0.2-0.3-0.4-0.5-0.5c-0.2,0-0.4-0.1-0.7-0.1
		c-0.3,0-0.5-0.1-0.5-0.2c0-0.2,0.2-0.3,0.5-0.3c0.2,0,0.6,0,1.1,0c0.5,0,0.8,0,1.1,0c0.2,0,0.6,0,1,0c0.4,0,0.8,0,1,0
		c0.2,0,0.3,0.1,0.3,0.2c0,0.2-0.1,0.3-0.4,0.3l-0.4,0c-0.2,0-0.4,0.1-0.6,0.2c-0.1,0.1-0.2,0.5-0.2,1.1v2.3c0,0.4,0,0.6,0,0.6
		c0,0.2-0.2,0.3-0.4,0.4c-1.1,0.7-2.5,1.1-4.2,1.1c-2,0-3.6-0.5-4.8-1.5c-1.5-1.3-2.3-2.8-2.3-4.6c0-1.9,0.8-3.5,2.3-4.8
		c1.5-1.2,3.2-1.9,5.2-1.9c1.2,0,2.2,0.2,3.2,0.6c0.3,0.1,0.5,0.3,0.5,0.5C257.2,97.8,257.2,98.1,257.2,98.3z"/>
	<path class="st1" d="M268.8,103.7h-6c-0.4,0-0.6,0-0.6,0.1c-0.1,0.1-0.2,0.2-0.2,0.6c0,1.1,0.3,2.1,1,2.9c0.7,0.8,1.6,1.2,2.8,1.2
		c0.6,0,1.1-0.1,1.6-0.3c0.3-0.1,0.6-0.3,0.9-0.6c0.2-0.2,0.4-0.3,0.4-0.3c0.1,0,0.2,0.1,0.2,0.2c0,0.2-0.3,0.5-0.8,0.9
		c-0.9,0.7-1.9,1.1-3.1,1.1c-1.3,0-2.3-0.4-3.2-1.3c-0.9-0.9-1.3-2-1.3-3.2c0-1.4,0.5-2.5,1.4-3.3c1-0.9,2.2-1.3,3.5-1.3
		c1.2,0,2.2,0.4,2.8,1.2c0.5,0.6,0.7,1.2,0.7,2C269,103.6,268.9,103.7,268.8,103.7z M262.8,103.2h1.6c1.1,0,1.9-0.1,2.3-0.2
		c0.5-0.1,0.7-0.4,0.7-0.8c0-0.4-0.2-0.8-0.5-1.2c-0.4-0.4-1-0.6-1.7-0.6c-1.1,0-1.9,0.4-2.6,1.3c-0.3,0.4-0.5,0.8-0.5,1.1
		C262.1,103.1,262.4,103.2,262.8,103.2z"/>
	<path class="st1" d="M271.6,107v-3.7c0-0.7-0.1-1.1-0.2-1.3c-0.1-0.1-0.3-0.2-0.6-0.2h-0.3c-0.2,0-0.2-0.1-0.2-0.2
		c0-0.1,0.2-0.2,0.5-0.3c0.7-0.2,1.2-0.5,1.6-1c0.1-0.2,0.3-0.3,0.4-0.3c0.1,0,0.2,0.1,0.2,0.3v1.3c0.1,0,0.3-0.1,0.6-0.4
		c0.4-0.4,0.8-0.6,1.1-0.8c0.5-0.3,1-0.4,1.6-0.4c1,0,1.8,0.4,2.3,1.1c0.3,0.4,0.5,0.8,0.5,1.3c0,0.3,0.1,0.7,0.1,1.4v3.1
		c0,0.6,0,1,0,1.1c0.1,0.3,0.4,0.5,0.8,0.5c0.4,0,0.6,0.1,0.6,0.3c0,0.1-0.1,0.2-0.2,0.2c-0.2,0-0.5,0-0.9,0c-0.4,0-0.7,0-0.9,0
		c-0.2,0-0.5,0-0.9,0c-0.4,0-0.7,0-0.9,0c-0.2,0-0.3-0.1-0.3-0.2c0-0.1,0.2-0.2,0.6-0.3c0.5,0,0.7-0.2,0.8-0.5c0-0.1,0-0.5,0-1.1
		v-3.1c0-0.9-0.1-1.6-0.4-2c-0.4-0.6-1-0.9-1.9-0.9c-0.8,0-1.4,0.3-2,0.8c-0.4,0.4-0.6,1-0.6,1.8v3.3c0,0.6,0,1,0,1.1
		c0.1,0.3,0.4,0.5,0.8,0.5c0.4,0,0.6,0.1,0.6,0.3c0,0.1-0.1,0.2-0.2,0.2c-0.2,0-0.5,0-0.9,0c-0.4,0-0.7,0-0.9,0c-0.2,0-0.5,0-0.9,0
		c-0.4,0-0.7,0-0.9,0c-0.2,0-0.3-0.1-0.3-0.2c0-0.1,0.2-0.2,0.6-0.3c0.5,0,0.7-0.2,0.8-0.5C271.5,108,271.6,107.7,271.6,107z"/>
	<path class="st1" d="M286.3,109.3c-1.4,0-2.5-0.4-3.5-1.3c-1-0.9-1.4-2-1.4-3.3c0-1.3,0.5-2.3,1.4-3.2c0.9-0.9,2.1-1.3,3.5-1.3
		c1.3,0,2.4,0.4,3.4,1.1c1,0.9,1.5,2,1.5,3.4c0,1.3-0.5,2.4-1.4,3.3C288.8,108.8,287.7,109.3,286.3,109.3z M286.4,108.9
		c1,0,1.8-0.5,2.5-1.4c0.6-0.8,0.9-1.7,0.9-2.8c0-1.1-0.3-2.1-0.8-2.9c-0.6-0.9-1.5-1.4-2.6-1.4c-1,0-1.9,0.4-2.5,1.3
		c-0.6,0.8-0.9,1.7-0.9,2.8c0,1.1,0.3,2,0.9,2.9C284.5,108.4,285.3,108.9,286.4,108.9z"/>
	<path class="st1" d="M293.6,107v-3.7c0-0.7-0.1-1.1-0.2-1.3c-0.1-0.1-0.3-0.2-0.6-0.2h-0.3c-0.2,0-0.2-0.1-0.2-0.2
		c0-0.1,0.2-0.2,0.5-0.3c0.7-0.2,1.2-0.5,1.6-1c0.1-0.2,0.3-0.3,0.4-0.3c0.1,0,0.2,0.1,0.2,0.3c0,0.8,0,1.2,0.1,1.2
		c0.1,0,0.2-0.1,0.5-0.4c0.4-0.3,0.7-0.6,1-0.7c0.5-0.3,1-0.4,1.5-0.4c0.6,0,1.1,0.2,1.5,0.5c0.3,0.2,0.5,0.5,0.7,0.8
		c0.2,0.3,0.3,0.5,0.3,0.5c0,0,0.2-0.2,0.5-0.5c0.4-0.4,0.7-0.6,1-0.8c0.5-0.3,1-0.5,1.6-0.5c0.9,0,1.6,0.3,2.1,0.9
		c0.3,0.3,0.5,0.7,0.5,1.2c0,0.2,0.1,0.7,0.1,1.4v3.4c0,0.6,0,1,0,1.1c0.1,0.3,0.4,0.5,0.8,0.5c0.4,0,0.6,0.1,0.6,0.3
		c0,0.1-0.1,0.2-0.2,0.2c-0.2,0-0.5,0-0.9,0c-0.4,0-0.7,0-0.9,0c-0.2,0-0.5,0-0.9,0c-0.4,0-0.7,0-0.9,0c-0.2,0-0.3-0.1-0.3-0.2
		c0-0.1,0.2-0.2,0.6-0.3c0.5,0,0.7-0.2,0.8-0.5c0-0.1,0-0.5,0-1.1v-3.4c0-0.9-0.1-1.5-0.3-1.9c-0.2-0.3-0.4-0.5-0.8-0.7
		c-0.3-0.2-0.7-0.2-1-0.2c-0.7,0.1-1.3,0.3-1.7,0.8c-0.3,0.3-0.5,0.6-0.6,0.8c-0.1,0.2-0.1,0.5-0.1,1v3.5c0,0.6,0,1,0,1.1
		c0.1,0.3,0.4,0.5,0.8,0.5c0.4,0,0.6,0.1,0.6,0.3c0,0.1-0.1,0.2-0.2,0.2c-0.2,0-0.5,0-0.9,0c-0.4,0-0.7,0-0.9,0c-0.2,0-0.5,0-0.9,0
		c-0.4,0-0.7,0-0.9,0c-0.2,0-0.3-0.1-0.3-0.2c0-0.1,0.2-0.2,0.6-0.3c0.5,0,0.7-0.2,0.8-0.5c0-0.1,0-0.5,0-1.1v-3.4
		c0-0.9-0.1-1.5-0.3-1.9c-0.2-0.3-0.4-0.5-0.7-0.7c-0.3-0.2-0.7-0.2-1-0.2c-0.7,0.1-1.3,0.3-1.7,0.8c-0.3,0.3-0.5,0.6-0.6,0.8
		c-0.1,0.2-0.1,0.5-0.1,1v3.5c0,0.6,0,1,0,1.1c0.1,0.3,0.4,0.5,0.8,0.5c0.4,0,0.6,0.1,0.6,0.3c0,0.1-0.1,0.2-0.2,0.2
		c-0.2,0-0.5,0-0.9,0c-0.4,0-0.7,0-0.9,0c-0.2,0-0.5,0-0.9,0c-0.4,0-0.7,0-0.9,0c-0.2,0-0.3-0.1-0.3-0.2c0-0.1,0.2-0.2,0.6-0.3
		c0.5,0,0.7-0.2,0.8-0.5C293.6,108,293.6,107.7,293.6,107z"/>
	<path class="st1" d="M311.4,100.4v6.6c0,0.6,0,1,0,1.1c0.1,0.3,0.4,0.5,0.8,0.5c0.4,0,0.6,0.1,0.6,0.3c0,0.1-0.1,0.2-0.2,0.2
		c-0.2,0-0.5,0-0.9,0c-0.4,0-0.7,0-0.9,0c-0.2,0-0.5,0-0.9,0c-0.4,0-0.7,0-0.9,0c-0.2,0-0.3-0.1-0.3-0.2c0-0.1,0.2-0.2,0.6-0.3
		c0.5,0,0.7-0.2,0.8-0.5c0-0.1,0-0.5,0-1.1v-3.7c0-0.7-0.1-1.1-0.2-1.3c-0.1-0.1-0.3-0.2-0.6-0.2H309c-0.2,0-0.2-0.1-0.2-0.2
		c0-0.1,0.2-0.2,0.5-0.3c0.7-0.2,1.2-0.5,1.6-1c0.1-0.2,0.3-0.3,0.4-0.3C311.3,100.1,311.4,100.2,311.4,100.4z M310.7,98.4
		c-0.6,0-0.8-0.3-0.8-0.9c0-0.3,0.1-0.5,0.2-0.7c0.2-0.2,0.4-0.3,0.6-0.3c0.2,0,0.5,0.1,0.6,0.3c0.2,0.2,0.2,0.4,0.2,0.7
		C311.6,98.1,311.3,98.4,310.7,98.4z"/>
	<path class="st1" d="M321.5,101.6c0,0.5,0,0.7,0,0.6c0,0.3-0.1,0.5-0.3,0.5c-0.2,0-0.4-0.2-0.6-0.6c-0.3-0.5-0.6-0.9-0.7-1
		c-0.4-0.4-0.8-0.6-1.2-0.6c-0.7,0-1.4,0.3-2,0.8c-0.9,0.8-1.4,1.9-1.4,3.2c0,1.1,0.3,2,1,2.8c0.7,0.9,1.6,1.3,2.7,1.3
		c0.9,0,1.7-0.3,2.3-0.9c0.2-0.2,0.3-0.2,0.3-0.2c0.1,0,0.1,0.1,0.1,0.2c0,0.2-0.2,0.4-0.6,0.7c-0.8,0.6-1.7,1-2.9,1
		c-1.2,0-2.3-0.4-3.1-1.3c-0.9-0.9-1.3-1.9-1.3-3.1c0-1.3,0.5-2.4,1.6-3.4c1-0.9,2.2-1.4,3.6-1.4c1,0,1.8,0.2,2.4,0.7
		c0.1,0.1,0.2,0.2,0.2,0.4C321.5,100.9,321.5,101.1,321.5,101.6z"/>
	<path class="st1" d="M332.9,97.3l3.6,9l4.1-9.3c0.1-0.2,0.3-0.3,0.5-0.3h2.2c0.3,0,0.4,0,0.4,0c0.1,0,0.2,0.1,0.2,0.2
		c0,0.2-0.2,0.3-0.5,0.3c-0.5,0-0.8,0.1-0.9,0.2c-0.1,0.1-0.1,0.6-0.1,1.4v8.2c0,0.7,0.1,1.2,0.2,1.4c0.1,0.2,0.4,0.3,0.8,0.3
		c0.4,0,0.6,0.1,0.6,0.3c0,0.2-0.1,0.2-0.4,0.2c-0.2,0-0.5,0-0.9,0c-0.4,0-0.7,0-0.9,0c-0.3,0-0.7,0-1.2,0c-0.5,0-0.9,0-1.2,0
		c-0.3,0-0.4-0.1-0.4-0.2c0-0.2,0.2-0.3,0.6-0.3c0.4,0,0.7-0.1,0.9-0.3c0.2-0.2,0.3-0.6,0.3-1.4v-8.9h-0.1l-4.4,10.3
		c-0.1,0.2-0.2,0.4-0.3,0.4c-0.1,0-0.2-0.1-0.3-0.4l-3.9-10h-0.1l-0.6,8.1c0,0.3,0,0.5,0,0.7c0,1,0.4,1.5,1.3,1.5
		c0.4,0,0.6,0.1,0.6,0.3c0,0.2-0.1,0.2-0.4,0.2c-0.2,0-0.5,0-0.9,0c-0.4,0-0.7,0-0.9,0c-0.2,0-0.5,0-0.9,0c-0.4,0-0.7,0-0.9,0
		c-0.2,0-0.3-0.1-0.3-0.2c0-0.2,0.2-0.3,0.5-0.3c0.5,0,0.8-0.1,1-0.4c0.1-0.2,0.2-0.5,0.2-1.1l0.6-8.7c0-0.5,0-0.8-0.1-0.9
		c-0.1-0.1-0.4-0.2-1-0.2c-0.3,0-0.5-0.1-0.5-0.3c0-0.1,0.1-0.2,0.2-0.2c-0.1,0,0.1,0,0.4,0h2.3c0.2,0,0.3,0.1,0.4,0.2L332.9,97.3z"
		/>
	<path class="st1" d="M353.2,103.7h-6c-0.4,0-0.6,0-0.6,0.1c-0.1,0.1-0.2,0.2-0.2,0.6c0,1.1,0.3,2.1,1,2.9c0.7,0.8,1.6,1.2,2.8,1.2
		c0.6,0,1.1-0.1,1.6-0.3c0.3-0.1,0.6-0.3,0.9-0.6c0.2-0.2,0.4-0.3,0.4-0.3c0.1,0,0.2,0.1,0.2,0.2c0,0.2-0.3,0.5-0.8,0.9
		c-0.9,0.7-1.9,1.1-3.1,1.1c-1.3,0-2.3-0.4-3.2-1.3c-0.9-0.9-1.3-2-1.3-3.2c0-1.4,0.5-2.5,1.4-3.3c1-0.9,2.2-1.3,3.5-1.3
		c1.2,0,2.2,0.4,2.8,1.2c0.5,0.6,0.7,1.2,0.7,2C353.5,103.6,353.4,103.7,353.2,103.7z M347.3,103.2h1.6c1.1,0,1.9-0.1,2.3-0.2
		c0.5-0.1,0.7-0.4,0.7-0.8c0-0.4-0.2-0.8-0.5-1.2c-0.4-0.4-1-0.6-1.7-0.6c-1.1,0-1.9,0.4-2.6,1.3c-0.3,0.4-0.5,0.8-0.5,1.1
		C346.6,103.1,346.9,103.2,347.3,103.2z"/>
	<path class="st1" d="M363.6,95.5v11.7c0,0.7,0.1,1,0.3,1c0.2,0,0.3-0.1,0.6-0.3c0.2-0.2,0.3-0.3,0.4-0.3c0.1,0,0.1,0.1,0.1,0.2
		l0,0.3c0,0.1-0.1,0.3-0.3,0.3L363,109c-0.2,0.1-0.3,0.2-0.4,0.2c-0.1,0-0.2-0.2-0.2-0.6c0-0.4-0.1-0.6-0.2-0.6c0,0-0.3,0.2-1,0.7
		c-0.7,0.4-1.4,0.7-2,0.7c-1.2,0-2.3-0.5-3.1-1.4c-0.8-0.9-1.2-1.9-1.2-3.2c0-1.2,0.5-2.3,1.4-3.2c1.1-1,2.2-1.5,3.4-1.4
		c0.8,0,1.5,0.2,2.1,0.4c0.2,0.1,0.3,0.1,0.4,0.1c0.1,0,0.2-0.2,0.2-0.7v-1.9c0-0.6,0-1,0-1.1c-0.1-0.4-0.3-0.5-0.8-0.5
		c-0.3,0-0.5-0.1-0.5-0.2c0-0.1,0.1-0.2,0.3-0.2c0.8-0.1,1.4-0.3,1.8-0.6c0.2-0.1,0.3-0.2,0.4-0.2C363.6,95.2,363.6,95.3,363.6,95.5
		z M362.3,106.5V103c0-0.9-0.2-1.5-0.5-1.8c-0.5-0.5-1.2-0.7-2-0.6c-1,0.1-1.9,0.5-2.5,1.3c-0.6,0.8-0.9,1.6-0.9,2.7
		c0,1.1,0.3,2,0.9,2.7c0.6,0.8,1.5,1.3,2.5,1.3c1,0,1.8-0.3,2.3-0.9C362.2,107.4,362.3,107,362.3,106.5z"/>
	<path class="st1" d="M368.6,100.4v6.6c0,0.6,0,1,0,1.1c0.1,0.3,0.4,0.5,0.8,0.5c0.4,0,0.6,0.1,0.6,0.3c0,0.1-0.1,0.2-0.2,0.2
		c-0.2,0-0.5,0-0.9,0c-0.4,0-0.7,0-0.9,0c-0.2,0-0.5,0-0.9,0c-0.4,0-0.7,0-0.9,0c-0.2,0-0.3-0.1-0.3-0.2c0-0.1,0.2-0.2,0.6-0.3
		c0.5,0,0.7-0.2,0.8-0.5c0-0.1,0-0.5,0-1.1v-3.7c0-0.7-0.1-1.1-0.2-1.3c-0.1-0.1-0.3-0.2-0.6-0.2h-0.3c-0.2,0-0.2-0.1-0.2-0.2
		c0-0.1,0.2-0.2,0.5-0.3c0.7-0.2,1.2-0.5,1.6-1c0.1-0.2,0.3-0.3,0.4-0.3C368.6,100.1,368.6,100.2,368.6,100.4z M367.9,98.4
		c-0.6,0-0.8-0.3-0.8-0.9c0-0.3,0.1-0.5,0.2-0.7c0.2-0.2,0.4-0.3,0.6-0.3c0.2,0,0.5,0.1,0.6,0.3c0.2,0.2,0.2,0.4,0.2,0.7
		C368.8,98.1,368.5,98.4,367.9,98.4z"/>
	<path class="st1" d="M378.8,101.6c0,0.5,0,0.7,0,0.6c0,0.3-0.1,0.5-0.3,0.5c-0.2,0-0.4-0.2-0.6-0.6c-0.3-0.5-0.6-0.9-0.7-1
		c-0.4-0.4-0.8-0.6-1.2-0.6c-0.7,0-1.4,0.3-2,0.8c-0.9,0.8-1.4,1.9-1.4,3.2c0,1.1,0.3,2,1,2.8c0.7,0.9,1.6,1.3,2.7,1.3
		c0.9,0,1.7-0.3,2.3-0.9c0.2-0.2,0.3-0.2,0.3-0.2c0.1,0,0.1,0.1,0.1,0.2c0,0.2-0.2,0.4-0.6,0.7c-0.8,0.6-1.7,1-2.9,1
		c-1.2,0-2.3-0.4-3.1-1.3c-0.9-0.9-1.3-1.9-1.3-3.1c0-1.3,0.5-2.4,1.6-3.4c1-0.9,2.2-1.4,3.6-1.4c1,0,1.8,0.2,2.4,0.7
		c0.1,0.1,0.2,0.2,0.2,0.4C378.8,100.9,378.8,101.1,378.8,101.6z"/>
	<path class="st1" d="M382.8,100.4v6.6c0,0.6,0,1,0,1.1c0.1,0.3,0.4,0.5,0.8,0.5c0.4,0,0.6,0.1,0.6,0.3c0,0.1-0.1,0.2-0.2,0.2
		c-0.2,0-0.5,0-0.9,0c-0.4,0-0.7,0-0.9,0c-0.2,0-0.5,0-0.9,0c-0.4,0-0.7,0-0.9,0c-0.2,0-0.3-0.1-0.3-0.2c0-0.1,0.2-0.2,0.6-0.3
		c0.5,0,0.7-0.2,0.8-0.5c0-0.1,0-0.5,0-1.1v-3.7c0-0.7-0.1-1.1-0.2-1.3c-0.1-0.1-0.3-0.2-0.6-0.2h-0.3c-0.2,0-0.2-0.1-0.2-0.2
		c0-0.1,0.2-0.2,0.5-0.3c0.7-0.2,1.2-0.5,1.6-1c0.1-0.2,0.3-0.3,0.4-0.3C382.8,100.1,382.8,100.2,382.8,100.4z M382.1,98.4
		c-0.6,0-0.8-0.3-0.8-0.9c0-0.3,0.1-0.5,0.2-0.7c0.2-0.2,0.4-0.3,0.6-0.3c0.2,0,0.5,0.1,0.6,0.3c0.2,0.2,0.2,0.4,0.2,0.7
		C383,98.1,382.7,98.4,382.1,98.4z"/>
	<path class="st1" d="M386.5,107v-3.7c0-0.7-0.1-1.1-0.2-1.3c-0.1-0.1-0.3-0.2-0.6-0.2h-0.3c-0.2,0-0.2-0.1-0.2-0.2
		c0-0.1,0.2-0.2,0.5-0.3c0.7-0.2,1.2-0.5,1.6-1c0.1-0.2,0.3-0.3,0.4-0.3c0.1,0,0.2,0.1,0.2,0.3v1.3c0.1,0,0.3-0.1,0.6-0.4
		c0.4-0.4,0.8-0.6,1.1-0.8c0.5-0.3,1-0.4,1.6-0.4c1,0,1.8,0.4,2.3,1.1c0.3,0.4,0.5,0.8,0.5,1.3c0,0.3,0.1,0.7,0.1,1.4v3.1
		c0,0.6,0,1,0,1.1c0.1,0.3,0.4,0.5,0.8,0.5c0.4,0,0.6,0.1,0.6,0.3c0,0.1-0.1,0.2-0.2,0.2c-0.2,0-0.5,0-0.9,0c-0.4,0-0.7,0-0.9,0
		c-0.2,0-0.5,0-0.9,0c-0.4,0-0.7,0-0.9,0c-0.2,0-0.3-0.1-0.3-0.2c0-0.1,0.2-0.2,0.6-0.3c0.5,0,0.7-0.2,0.8-0.5c0-0.1,0-0.5,0-1.1
		v-3.1c0-0.9-0.1-1.6-0.4-2c-0.4-0.6-1-0.9-1.9-0.9c-0.8,0-1.4,0.3-2,0.8c-0.4,0.4-0.6,1-0.6,1.8v3.3c0,0.6,0,1,0,1.1
		c0.1,0.3,0.4,0.5,0.8,0.5c0.4,0,0.6,0.1,0.6,0.3c0,0.1-0.1,0.2-0.2,0.2c-0.2,0-0.5,0-0.9,0c-0.4,0-0.7,0-0.9,0c-0.2,0-0.5,0-0.9,0
		c-0.4,0-0.7,0-0.9,0c-0.2,0-0.3-0.1-0.3-0.2c0-0.1,0.2-0.2,0.6-0.3c0.5,0,0.7-0.2,0.8-0.5C386.4,108,386.5,107.7,386.5,107z"/>
	<path class="st1" d="M404.6,103.7h-6c-0.4,0-0.6,0-0.6,0.1c-0.1,0.1-0.2,0.2-0.2,0.6c0,1.1,0.3,2.1,1,2.9c0.7,0.8,1.6,1.2,2.8,1.2
		c0.6,0,1.1-0.1,1.6-0.3c0.3-0.1,0.6-0.3,0.9-0.6c0.2-0.2,0.4-0.3,0.4-0.3c0.1,0,0.2,0.1,0.2,0.2c0,0.2-0.3,0.5-0.8,0.9
		c-0.9,0.7-1.9,1.1-3.1,1.1c-1.3,0-2.3-0.4-3.2-1.3c-0.9-0.9-1.3-2-1.3-3.2c0-1.4,0.5-2.5,1.4-3.3c1-0.9,2.2-1.3,3.5-1.3
		c1.2,0,2.2,0.4,2.8,1.2c0.5,0.6,0.7,1.2,0.7,2C404.8,103.6,404.7,103.7,404.6,103.7z M398.6,103.2h1.6c1.1,0,1.9-0.1,2.3-0.2
		c0.5-0.1,0.7-0.4,0.7-0.8c0-0.4-0.2-0.8-0.5-1.2c-0.4-0.4-1-0.6-1.7-0.6c-1.1,0-1.9,0.4-2.6,1.3c-0.3,0.4-0.5,0.8-0.5,1.1
		C398,103.1,398.2,103.2,398.6,103.2z"/>
</g>
<g>
	<g>
		<g>
			<path class="st1" d="M253.8,77.3c0,3.3,0,3.8,3.2,3.8c0.4,0,1,0,1,0.6c0,0.5-0.4,0.6-0.8,0.6c-1.8,0-3.5-0.2-5.3-0.2
				c-1.8,0-3.6,0.2-5.4,0.2c-0.4,0-0.8-0.1-0.8-0.6c0-0.6,0.6-0.6,1.2-0.6c3.1,0,3.1-0.5,3.1-3.8V58.4c0-3.3,0-3.8-3.1-3.8
				c-0.4,0-1.2,0-1.2-0.6c0-0.5,0.3-0.7,0.8-0.7c1.8,0,3.5,0.2,5.3,0.2c1.8,0,3.6-0.2,5.4-0.2c0.4,0,0.8,0.1,0.8,0.7
				c0,0.6-0.8,0.6-1.2,0.6c-3.1,0-3.1,0.5-3.1,3.8V77.3L253.8,77.3z"/>
			<path class="st1" d="M264.2,68.7c0-2.9-0.2-3.3-1.8-3.3c-0.8,0-1.2,0-1.2-0.4c0-0.6,0.7-0.6,1.1-0.8c1.1-0.3,3.2-1.5,3.9-2.4
				c0.2-0.2,0.5-0.6,0.8-0.6c0.4,0,0.4,0.3,0.4,0.7V64c0,0.6,0,0.9,0.1,0.9c0.2,0,1.2-0.9,2.5-1.9c1.3-0.9,3-1.8,5.1-1.8
				c2.4,0,4.2,0.8,5.6,2.5c1.4,1.8,1.4,3.7,1.4,6.4v7.3c0,2.4,0,3.8,2.1,3.8c0.5,0,1.3,0,1.3,0.6c0,0.4-0.2,0.5-0.6,0.5
				c-1.5,0-3-0.2-4.4-0.2c-1.5,0-3,0.2-4.5,0.2c-0.3,0-0.7-0.1-0.7-0.5c0-0.6,0.8-0.6,1.3-0.6c2.1,0,2.1-1.4,2.1-3.8V70
				c0-1.5,0-3.3-0.8-4.6c-0.9-1.3-2.6-2.1-4.4-2.1c-1.8,0-3.4,0.7-4.7,2c-1.4,1.4-1.5,2.4-1.5,4.2v7.8c0,2.4,0,3.8,2.1,3.8
				c0.5,0,1.3,0,1.3,0.6c0,0.4-0.2,0.5-0.6,0.5c-1.5,0-3-0.2-4.4-0.2c-1.5,0-3,0.2-4.5,0.2c-0.3,0-0.7-0.1-0.7-0.5
				c0-0.6,0.8-0.6,1.3-0.6c2.1,0,2.1-1.4,2.1-3.8V68.7L264.2,68.7z"/>
			<path class="st1" d="M288.6,67c0-2.8,2.8-5.8,8-5.8c1.2,0,3.7,0.3,4.8,0.8c0.5,0.2,0.6,0.6,0.6,1c0,0.4,0,0.8,0,1.2
				c0,0.3,0,0.8,0,1.2c0,0.4-0.1,1-0.5,1c-0.7,0-0.8-1.5-1.8-2.8c-0.7-0.8-1.8-1.6-3.9-1.6c-1.9,0-4.3,1.3-4.3,3.4
				c0,2.7,3,3.4,5.9,4.4c3,1,5.9,2.3,5.9,6c0,4.4-4.9,6.7-8.9,6.7c-1.6,0-4.4-0.6-6-1.4c-0.3-0.1-0.5-0.3-0.6-0.6
				c-0.1-0.2-0.1-0.6-0.1-1.1c0-1,0.1-2.1,0.1-3.1c0-0.6,0.1-1,0.6-1c0.8,0,0.8,1.6,1.4,3.2c0.5,1.6,1.6,3.1,4.8,3.1
				c2.8,0,5.7-1.6,5.7-4.5c0-2.7-2.3-3.7-4.5-4.4C292.9,71.9,288.6,70.8,288.6,67L288.6,67L288.6,67z"/>
			<path class="st1" d="M311.4,75.5c0,2.1,0,5.4,2.8,5.4c0.9,0,1.6-0.4,2.2-0.8c0.6-0.4,1-0.8,1.2-0.8c0.2,0,0.3,0.2,0.3,0.3
				c0,0.6-2.3,3-5.3,3c-1.3,0-2.6-0.5-3.4-1.4c-1-1.3-1-2.6-1-5.7V63.6c0-0.7-0.2-0.8-0.7-0.8c-0.4,0-0.8,0-1.1,0
				c-0.4,0-0.8-0.1-0.8-0.4c0-0.3,0.3-0.5,0.6-0.7c2-1.3,3.4-2.4,4.5-4.7c0.1-0.2,0.2-0.4,0.5-0.4c0.3,0,0.4,0.3,0.4,0.6v3.3
				c0,0.6,0.1,0.9,0.8,0.9h4.6c0.4,0,0.4,0.3,0.4,0.6c0,0.6-0.2,0.8-0.6,0.8c-1.2,0-2.3,0-3.5,0c-1.6,0-1.7,0-1.7,1V75.5L311.4,75.5
				z"/>
			<path class="st1" d="M322.9,68.7c0-2.9-0.2-3.3-1.8-3.3c-0.8,0-1.2,0-1.2-0.4c0-0.6,0.7-0.6,1.1-0.8c1.1-0.3,3.1-1.5,3.9-2.4
				c0.2-0.3,0.5-0.6,0.8-0.6c0.4,0,0.4,0.3,0.4,0.7v2.2v13.2c0,2.6,0,3.8,2.1,3.8c0.5,0,1.3,0,1.3,0.6c0,0.4-0.2,0.5-0.6,0.5
				c-1.5,0-3-0.2-4.4-0.2c-1.5,0-3,0.2-4.5,0.2c-0.3,0-0.7-0.1-0.7-0.5c0-0.6,0.8-0.6,1.3-0.6c2.1,0,2.1-1,2.1-3.8V68.7L322.9,68.7z
				 M324.4,57.2c-1.2,0-2-1-2-2.2c0-1.2,0.8-2.3,2.1-2.3c1.2,0,2,1.1,2,2.2C326.5,56.2,325.8,57.2,324.4,57.2L324.4,57.2L324.4,57.2
				z"/>
			<path class="st1" d="M336.8,75.5c0,2.1,0,5.4,2.8,5.4c0.9,0,1.6-0.4,2.2-0.8c0.6-0.4,1-0.8,1.2-0.8c0.2,0,0.3,0.2,0.3,0.3
				c0,0.6-2.3,3-5.3,3c-1.3,0-2.6-0.5-3.4-1.4c-1-1.3-1-2.6-1-5.7V63.6c0-0.7-0.2-0.8-0.7-0.8c-0.4,0-0.8,0-1.1,0
				c-0.4,0-0.8-0.1-0.8-0.4c0-0.3,0.3-0.5,0.6-0.7c2-1.3,3.4-2.4,4.5-4.7c0.1-0.2,0.2-0.4,0.5-0.4c0.3,0,0.4,0.3,0.4,0.6v3.3
				c0,0.6,0.1,0.9,0.8,0.9h4.7c0.4,0,0.4,0.3,0.4,0.6c0,0.6-0.2,0.8-0.6,0.8c-1.2,0-2.3,0-3.5,0c-1.6,0-1.7,0-1.7,1V75.5L336.8,75.5
				z"/>
			<path class="st1" d="M350.6,73.5c0,3.2,0,7.3,5.6,7.3c2,0,3.7-0.6,5-2.1c0.8-0.9,0.8-1.4,0.8-3.4v-8.8c0-2.5,0-3.7-2.1-3.7
				c-0.4,0-1.3,0-1.3-0.6c0-0.2,0-0.5,0.6-0.5c0.9,0,2,0.1,2.9,0.1c0.9,0,1.9-0.1,2.7-0.1c0.5,0,0.5,0.2,0.5,1.2v1.8v13.1
				c0,1.2,0.2,1.9,1.9,1.8c0.8,0,1.2-0.1,1.2,0.3c0,0.4-0.7,0.5-1,0.6c-1.6,0.5-3.3,1-4.7,2c-0.1,0-0.4,0.3-0.5,0.3
				c-0.2,0-0.2-0.1-0.2-0.4c0-0.6,0-1.3,0-2c0-0.5-0.1-1-0.4-1c-0.2,0-0.4,0.2-0.8,0.5c-1.1,0.9-3.1,2.8-6.4,2.8
				c-2.3,0-4.2-0.9-5.5-2.7c-1.4-1.8-1.4-4.2-1.4-6.3v-7.2c0-2.7,0-3.7-2.1-3.7c-0.4,0-1.3,0-1.3-0.6c0-0.2,0-0.5,0.6-0.5
				c0.7,0,2.1,0.1,2.8,0.1c0.7,0,1.7-0.1,2.4-0.1c0.8,0,0.8,0.6,0.8,1.7V73.5L350.6,73.5z"/>
			<path class="st1" d="M376.3,75.5c0,2.1,0,5.4,2.8,5.4c0.9,0,1.6-0.4,2.2-0.8c0.6-0.4,1-0.8,1.2-0.8c0.2,0,0.3,0.2,0.3,0.3
				c0,0.6-2.3,3-5.3,3c-1.3,0-2.6-0.5-3.4-1.4c-1-1.3-1-2.6-1-5.7V63.6c0-0.7-0.2-0.8-0.7-0.8c-0.4,0-0.8,0-1.1,0
				c-0.4,0-0.8-0.1-0.8-0.4c0-0.3,0.3-0.5,0.6-0.7c2-1.3,3.4-2.4,4.5-4.7c0.1-0.2,0.2-0.4,0.5-0.4c0.3,0,0.4,0.3,0.4,0.6v3.3
				c0,0.6,0.1,0.9,0.8,0.9h4.7c0.4,0,0.4,0.3,0.4,0.6c0,0.6-0.2,0.8-0.6,0.8c-1.2,0-2.3,0-3.5,0c-1.5,0-1.7,0-1.7,1V75.5L376.3,75.5
				z"/>
			<path class="st1" d="M390,69.5c-1.6,0-1.9,0-1.9,1.4c0,5.2,3.4,9.7,9.1,9.7c2.6,0,4.2-0.9,5.4-1.8c0.8-0.6,1.3-1.2,1.6-1.2
				c0.2,0,0.4,0.2,0.4,0.4c0,0.6-1.5,1.8-1.8,2.1c-2.2,1.8-4.5,2.6-7.4,2.6c-6.2,0-10.7-4.8-10.7-10.6c0-7.9,7.2-10.8,11.9-10.8
				c5.6,0,8.4,3.9,8.4,7.5c0,0.4-0.1,0.8-0.6,0.8H390 M388.4,67.9c0,0.6,0.5,0.6,1.6,0.6h3.8c1.5,0,4.1,0,5.5-0.4
				c1-0.2,1.7-0.7,1.7-1.8c0-0.7-0.6-4.2-5.3-4.2C390.9,62.1,388.4,66.4,388.4,67.9L388.4,67.9"/>
			<path class="st2" d="M401.8,66.4"/>
		</g>
	</g>
	<g>
		<path class="st1" d="M51.7,59.5c0,0.4-0.1,0.6-0.5,0.6c-1.2,0-1.6-6-8.9-6c-7.9,0-11.8,6.8-11.8,13.8c0,3.3,0.9,6.5,2.9,9.2
			c2.2,3,5.1,5,8.9,5c7.3,0,7.9-7.4,9.2-7.4c0.4,0,0.6,0.3,0.5,0.6l-0.2,3.8c-0.1,1.5,0,1.6-1.5,2.3c-2.8,1.3-5.4,2-8.5,2
			c-8.6,0-15.4-7.1-15.4-15.4c0-8.7,7.7-15.2,16.4-15.2c2.1,0,5.4,0.6,7.5,1.3c1.4,0.5,1.2,1.1,1.3,2.4L51.7,59.5L51.7,59.5z"/>
		<path class="st1" d="M62.3,64.4c0,0.2,0.1,0.5,0.4,0.5c0.2,0,0.5-0.2,0.6-0.3c2-2,3.8-3,6.9-3c1.9,0,4.2,0.6,5.4,2.3
			c1.4,1.9,1.4,4.4,1.4,6.7V78c0,2-0.4,3.6,2.1,3.8c0.5,0,1.3,0,1.3,0.6c0,0.4-0.2,0.5-0.6,0.5c-1.5,0-3-0.2-4.4-0.2
			c-1.5,0-3,0.2-4.5,0.2c-0.3,0-0.7-0.1-0.7-0.5c0-0.7,0.8-0.6,1.3-0.7c2.5-0.2,2.1-1.8,2.1-3.8v-8.1c0-1.5,0-3.4-0.8-4.6
			c-0.9-1.4-2.5-2.1-4.5-2.1c-1.8,0-3.4,0.8-4.7,2c-1.4,1.4-1.4,2.4-1.4,4.3V78c0,2-0.4,3.6,2.1,3.8c0.5,0,1.3,0,1.3,0.6
			c0,0.4-0.2,0.5-0.6,0.5c-1.5,0-3-0.2-4.4-0.2c-1.5,0-3,0.2-4.5,0.2c-0.3,0-0.7-0.1-0.7-0.5c0-0.7,0.8-0.6,1.3-0.7
			c2.5-0.2,2.1-1.8,2.1-3.8V56.7c0-1.7,0.4-3.8-1.8-3.8c-0.4,0-1.2,0.1-1.2-0.5c0-0.3,0.4-0.5,0.7-0.5c1.3-0.2,3.1-0.7,4.2-1.5
			c0.2-0.2,0.7-0.5,1-0.5c0.5,0,0.4,0.4,0.4,0.8V64.4L62.3,64.4z"/>
		<path class="st1" d="M91,78c0,2-0.4,3.6,2.1,3.8c0.5,0,1.3,0,1.3,0.6c0,0.4-0.2,0.5-0.6,0.5c-1.5,0-3-0.2-4.4-0.2
			c-1.5,0-3,0.2-4.5,0.2c-0.3,0-0.7-0.1-0.7-0.5c0-0.7,0.8-0.6,1.3-0.7c2.5-0.2,2.1-1.8,2.1-3.8v-8.8c0-0.7,0-2.5-0.5-3
			c-0.3-0.3-1-0.4-1.4-0.4h-0.6c-0.3,0-0.6-0.1-0.6-0.4c0-0.6,0.7-0.7,1.1-0.8c1.1-0.3,3.2-1.6,3.9-2.4c0.2-0.2,0.5-0.6,0.8-0.6
			c0.5,0,0.4,0.4,0.4,0.8V78L91,78z M87.3,55.3c0-1.2,0.8-2.3,2.1-2.3c1.2,0,2,1.1,2,2.3c0,1.3-0.7,2.3-2.1,2.3
			C88.1,57.5,87.3,56.5,87.3,55.3L87.3,55.3z"/>
		<path class="st1" d="M105.2,78c0,2-0.4,3.6,2.1,3.8c0.5,0,1.3,0,1.3,0.6c0,0.4-0.2,0.5-0.6,0.5c-1.5,0-3-0.2-4.4-0.2
			c-1.5,0-3,0.2-4.5,0.2c-0.3,0-0.7-0.1-0.7-0.5c0-0.7,0.8-0.6,1.3-0.7c2.5-0.2,2.1-1.8,2.1-3.8V56.7c0-1.7,0.4-3.8-1.8-3.8
			c-0.4,0-1.2,0.1-1.2-0.5c0-0.3,0.4-0.5,0.7-0.5c1.3-0.2,3.1-0.7,4.2-1.5c0.2-0.2,0.7-0.5,1-0.5c0.5,0,0.4,0.4,0.4,0.8V78L105.2,78
			z"/>
		<path class="st1" d="M132.9,78.5c0,0.5-0.2,2.4,0.7,2.4c1,0,1.8-1.6,2.2-1.6c0.3,0,0.3,0.4,0.2,0.6l0,0.6c0,0.6-0.2,0.6-0.8,0.8
			l-3.8,1.5c-0.2,0.1-0.7,0.4-1,0.4c-0.5,0-0.5-1-0.5-1.3c0-0.2,0-1.5-0.5-1.5c-0.7,0-3.4,3.1-7.3,3.1c-6,0-10.2-5.2-10.2-10.8
			c0-3,1.2-5.5,3.3-7.6c2.1-2,5-3.5,8.1-3.4c1.7,0.1,3.5,0.4,5,1c0.2,0.1,0.7,0.3,0.9,0.3c0.6,0,0.4-1.5,0.4-1.7v-4.5
			c0-1.7,0.4-3.8-1.8-3.8c-0.4,0-1.2,0.1-1.2-0.5c0-0.3,0.4-0.5,0.7-0.5c1.3-0.2,3.1-0.7,4.2-1.5c0.2-0.2,0.7-0.5,1-0.5
			c0.5,0,0.4,0.4,0.4,0.8V78.5L132.9,78.5z M129.7,68.3c0-1.5,0.1-3.2-1.1-4.4c-1.1-1.1-3.3-1.6-4.9-1.5c-5.1,0.5-8.2,4.7-8.2,9.4
			c0,4.7,2.9,9.5,8.2,9.5c1.9,0,4.2-0.7,5.6-2.2c0.6-0.8,0.5-1.4,0.5-2.3V68.3L129.7,68.3z"/>
		<path class="st1" d="M143.1,69.2c0-0.7,0-2.5-0.5-3c-0.3-0.3-1-0.4-1.4-0.4h-0.6c-0.3,0-0.6-0.1-0.6-0.4c0-0.6,0.7-0.7,1.1-0.8
			c1.1-0.3,3.2-1.6,3.9-2.4c0.2-0.2,0.5-0.6,0.8-0.6c0.5,0,0.4,0.4,0.4,0.8v2.3c0,0.2-0.1,1,0.2,1c0.5,0,2.3-3.8,5.6-3.8
			c1.4,0,2.7,0.8,2.7,2.3c0,1.2-0.8,1.9-2,1.9c-1.6,0-1.7-1.8-3-1.8c-1,0-1.8,1-2.4,1.7c-1.1,1.6-1.1,2.8-1.1,4.7V78
			c0,2-0.4,3.6,2.1,3.8c0.5,0,1.3,0,1.3,0.6c0,0.4-0.2,0.5-0.6,0.5c-1.5,0-3-0.2-4.4-0.2c-1.5,0-3,0.2-4.5,0.2
			c-0.3,0-0.7-0.1-0.7-0.5c0-0.7,0.8-0.6,1.3-0.7c2.5-0.2,2.1-1.8,2.1-3.8V69.2L143.1,69.2z"/>
		<path class="st1" d="M162.7,70.1c-1.5,0-1.9-0.1-1.9,1.5c0,5.3,3.4,9.8,9.2,9.8c4.6,0,6.4-3.1,7-3.1c0.2,0,0.4,0.2,0.4,0.4
			c0,0.6-1.5,1.8-1.8,2.1c-2.2,1.9-4.5,2.6-7.5,2.6c-6.2,0-10.8-4.9-10.8-10.8c0-3.2,0.9-5.7,3.4-7.8c2.4-2.1,5.3-3.1,8.5-3.1
			c2.5,0,5.1,0.9,6.8,2.9c0.9,1.2,1.7,3.2,1.7,4.7c0,0.4-0.1,0.8-0.6,0.8H162.7L162.7,70.1z M166.5,68.9c1.5,0,4.1,0,5.5-0.4
			c1-0.2,1.7-0.8,1.7-1.9c0-1-0.6-2.1-1.2-2.8c-1-1.1-2.6-1.5-4.1-1.5c-2.4,0-4.7,1.2-6.1,3.1c-0.4,0.5-1.2,2-1.2,2.7
			c0,0.8,1.1,0.6,1.6,0.6H166.5L166.5,68.9z"/>
		<path class="st1" d="M185.3,69.2c0-0.7,0-2.5-0.5-3c-0.3-0.3-1-0.4-1.4-0.4h-0.6c-0.3,0-0.6-0.1-0.6-0.4c0-0.6,0.7-0.7,1.1-0.8
			c1.1-0.3,3.2-1.6,3.9-2.4c0.2-0.2,0.5-0.6,0.8-0.6c0.5,0,0.4,0.4,0.4,0.8v3.1c0.8,0,3.4-3.8,7.7-3.8c2.4,0,4.2,0.8,5.6,2.5
			c1.5,1.9,1.4,4.2,1.4,6.5V78c0,2-0.4,3.6,2.1,3.8c0.5,0,1.3,0,1.3,0.6c0,0.4-0.2,0.5-0.6,0.5c-1.5,0-3-0.2-4.4-0.2
			c-1.5,0-3,0.2-4.5,0.2c-0.3,0-0.7-0.1-0.7-0.5c0-0.7,0.8-0.6,1.3-0.7c2.5-0.2,2.1-1.8,2.1-3.8v-7.5c0-1.5,0-3.4-0.8-4.6
			c-0.9-1.4-2.6-2.1-4.4-2.1c-1.8,0-3.4,0.8-4.7,2c-1.4,1.4-1.5,2.4-1.5,4.3V78c0,2-0.4,3.6,2.1,3.8c0.5,0,1.3,0,1.3,0.6
			c0,0.4-0.2,0.5-0.6,0.5c-1.5,0-3-0.2-4.4-0.2c-1.5,0-3,0.2-4.5,0.2c-0.3,0-0.7-0.1-0.7-0.5c0-0.7,0.8-0.6,1.3-0.7
			c2.5-0.2,2.1-1.8,2.1-3.8V69.2L185.3,69.2z"/>
		<path class="st1" d="M215.5,77.1c0-0.4,0.1-1,0.6-1c1.7,0-0.2,6.4,6.2,6.4c2.8,0,5.8-1.6,5.8-4.6c0-2.7-2.3-3.8-4.5-4.5
			c-2.9-0.9-7.2-2.1-7.2-5.9c0-1.8,1-3.3,2.5-4.4c1.7-1.2,3.6-1.5,5.6-1.5c1.2,0,3.7,0.3,4.9,0.8c0.8,0.4,0.5,1.4,0.5,2.1
			c0,0.3,0.3,2.3-0.5,2.3c-1.2,0-0.7-4.4-5.8-4.4c-1.9,0-4.3,1.3-4.3,3.5c0,5.5,11.8,3,11.8,10.7c0,4.5-5,6.9-9,6.9
			c-1.6,0-4.4-0.6-6-1.4c-0.8-0.3-0.7-0.9-0.7-1.7L215.5,77.1"/>
		<path class="st1" d="M58.2,11.7c0-3,0.2-3.9-3-3.9c-0.4,0-1.2,0-1.2-0.6c0-0.5,0.3-0.7,0.8-0.7c1.5,0,3.1,0.2,4.6,0.2
			c2.7,0,5.3-0.2,8-0.2c4.5,0,8.9,2.2,8.9,7.1c0,4.3-3.5,6.7-7.4,7.3c1.5,0.2,2.2,1.9,2.9,3.1l3.8,7.3c0.8,1.6,1.5,3.4,3.6,3.4
			c0.4,0,1.2,0,1.2,0.7c0,0.5-0.5,0.5-0.8,0.5h-5c-0.9,0-1.2-0.9-1.6-1.6l-4.6-9.1c-1.7-3.3-1.6-3.7-5.2-3.7c-0.4,0-0.8,0-1,0.2
			c-0.3,0.3-0.2,1.5-0.2,1.9v7.2c0,3-0.2,3.8,3,3.9c0.4,0,1.2,0,1.2,0.6c0,0.5-0.4,0.6-0.8,0.6c-1.8,0-3.5-0.2-5.3-0.2
			c-1.8,0-3.6,0.2-5.3,0.2c-0.4,0-0.8-0.1-0.8-0.6c0-0.6,0.7-0.6,1.2-0.6c3.3,0,3-0.9,3-3.9V11.7L58.2,11.7z M61.9,19.7
			c0,1.2,1.6,0.8,2.4,0.8c2.2,0,4.1-0.2,5.9-1.5c1.5-1.2,2.2-2.9,2.2-4.8c0-4.3-2.6-6.7-6.8-6.7c-3.6,0-3.7,0.5-3.7,3.7V19.7
			L61.9,19.7z"/>
		<path class="st1" d="M92.2,24.4c1.7-0.8,1.7-0.8,1.7-2.6v-2.1c0-2.3-0.1-4.2-3-4.2c-2.9,0-4.3,1.5-5.4,3.9
			c-0.3,0.7-0.6,1.4-1.3,1.7c-0.5,0.2-1.5,0.6-2,0.6c-0.4,0-0.6-0.1-0.6-0.6c0-1.2,1.1-2.6,2-3.3c2.2-2,5.4-3.2,8.4-3.2
			c1.5,0,3.2,0.2,4.3,1.2c1.1,0.9,0.9,2.2,0.9,3.4v11.1c0,1,0,3.7,1.6,3.7c1.2,0,1.7-1.2,2.1-1.2c0.2,0,0.3,0.2,0.3,0.4
			c0,0.5-0.8,1.2-1.1,1.5C99.2,35.3,98,36,96.8,36c-2.3,0-2.5-3.3-3.2-3.3c-0.4,0-3.5,3.6-7.6,3.6c-2.2,0-4.4-1.4-4.4-3.7
			c0-3.3,4.4-5.3,6.9-6.6L92.2,24.4L92.2,24.4z M88.8,27c-1.8,0.9-3.7,2.2-3.7,4.4c0,1.8,1.5,2.8,3.2,2.8c1.6,0,3.2-0.8,4.4-1.9
			c1.1-1.2,1.2-2,1.2-3.5V26c0-0.2,0.1-1.3-0.3-1.3c-0.1,0-0.4,0.1-0.5,0.2L88.8,27L88.8,27z"/>
		<path class="st1" d="M125,31.4c0,0.5-0.2,2.4,0.7,2.4c1,0,1.8-1.6,2.2-1.6c0.3,0,0.3,0.4,0.2,0.6l0,0.6c0,0.6-0.2,0.6-0.8,0.8
			l-3.8,1.5c-0.2,0.1-0.7,0.4-1,0.4c-0.5,0-0.5-1-0.5-1.3c0-0.2,0-1.5-0.5-1.5c-0.7,0-3.4,3.1-7.2,3.1c-6,0-10.1-5.2-10.1-10.8
			c0-2.9,1.2-5.5,3.3-7.5c2.1-2,5-3.5,8-3.4c1.7,0.1,3.5,0.4,5,1c0.2,0.1,0.7,0.3,0.9,0.3c0.6,0,0.4-1.5,0.4-1.7V9.7
			c0-1.7,0.4-3.8-1.8-3.8c-0.4,0-1.2,0.1-1.2-0.5c0-0.3,0.4-0.5,0.7-0.5c1.3-0.2,3.1-0.7,4.2-1.5c0.2-0.2,0.7-0.5,1-0.5
			c0.5,0,0.4,0.4,0.4,0.8V31.4L125,31.4z M121.7,21.3c0-1.5,0.1-3.2-1.1-4.4c-1.1-1.1-3.3-1.6-4.8-1.5c-5.1,0.5-8.2,4.7-8.2,9.4
			c0,4.7,2.9,9.5,8.1,9.5c1.9,0,4.2-0.7,5.5-2.2c0.6-0.8,0.5-1.4,0.5-2.3V21.3L121.7,21.3z"/>
		<path class="st1" d="M146.6,19.8c0.2-0.5,0.7-1.4,0.7-2c0-1.4-1.5-1.7-2.5-1.7c-0.4,0-1.1,0-1.1-0.3c0-0.4,0.3-0.6,0.7-0.6h7.5
			c0.4,0,0.7,0.2,0.7,0.7c0,0.2-0.7,0.2-1,0.3c-0.5,0.1-1.5,0.4-2,1.1c-0.9,1.1-2,3.7-2.6,5l-9.4,22.2c-0.5,1.5-0.5,1.9-2.3,1.9
			c-1.2,0-2.6,0-2.6-1.5c0-1.1,0.2-1.8,1.5-1.8c0.6,0,1.4,0,2.1-0.1c0.8-0.2,1-1,1.3-1.7l1.6-3.7c0.2-0.5,0.4-0.9,0.4-1.4
			c0-0.7-0.4-1.4-0.7-2l-6.2-14.6c-0.6-1.5-1.1-3.3-3-3.3c-0.4,0-1.1,0-1.1-0.3c0-0.5,0.5-0.6,0.9-0.6h9.1c0.3,0,0.7,0.2,0.7,0.6
			c0,0.3-0.7,0.3-1.1,0.3c-0.8,0-2.4,0.2-2.4,1.4c0,0.6,0.3,1.4,0.6,1.9l5.3,12.6L146.6,19.8L146.6,19.8z"/>
		<path class="st0" d="M209.5,83.7"/>
	</g>
</g>
<g>
	<path id="kite_20_" class="st1" d="M197.2,25.5c8.9,7.2,13.9,17.9,15,30.2l9.1-18.2L197.2,25.5L197.2,25.5z"/>
	<path id="kite_11_" class="st1" d="M196.1,27.6C205,36.5,209.4,46.2,210,60l-24.1-12L196.1,27.6L196.1,27.6z"/>
	<path class="st1" d="M219.9,100.7C219.9,100.6,219.9,100.6,219.9,100.7c0-0.2,0-0.3,0-0.4c0-0.1,0-0.1,0-0.2c0-0.1,0-0.3-0.1-0.4
		c0-0.1,0-0.1,0-0.1c0-0.2-0.1-0.4-0.1-0.6c0,0,0,0,0,0c0-0.1,0-0.1,0-0.2c0-0.2-0.1-0.3-0.1-0.5c0,0,0,0,0-0.1c0-0.1,0-0.1-0.1-0.2
		c0-0.2-0.1-0.3-0.1-0.5c0-0.1-0.1-0.2-0.1-0.3c-0.1-0.2-0.1-0.3-0.2-0.5c0-0.1-0.1-0.2-0.1-0.3c0-0.1,0-0.1-0.1-0.2
		c0-0.1-0.1-0.2-0.1-0.3c0-0.1-0.1-0.2-0.1-0.3c-0.1-0.2-0.2-0.4-0.3-0.6c0-0.1-0.1-0.2-0.1-0.2c0,0,0,0,0-0.1
		c-0.1-0.3-0.3-0.7-0.5-1c0,0,0,0,0,0c-0.1-0.3-0.3-0.7-0.5-1c0,0,0-0.1-0.1-0.1c0,0,0-0.1-0.1-0.1c-0.1-0.1-0.1-0.3-0.2-0.4
		c-0.1-0.2-0.2-0.4-0.3-0.7c0,0,0,0,0-0.1c0,0,0-0.1,0-0.1c-0.1-0.2-0.2-0.4-0.3-0.6c-0.1-0.2-0.3-0.5-0.4-0.7
		c-0.3-0.6-0.6-1.2-1-1.8c0-0.1-0.1-0.1-0.1-0.2c-0.3-0.5-0.5-1-0.8-1.6c-0.2-0.3-0.3-0.7-0.5-1c0-0.1-0.1-0.1-0.1-0.2
		c-0.2-0.4-0.4-0.9-0.6-1.3c0-0.1-0.1-0.2-0.1-0.3c-0.2-0.4-0.3-0.9-0.5-1.3c0,0,0-0.1,0-0.1c-0.1-0.4-0.2-0.8-0.3-1.2
		c0-0.1-0.1-0.2-0.1-0.3c0-0.1,0-0.2-0.1-0.3c0-0.2-0.1-0.4-0.1-0.5c0-0.1,0-0.2,0-0.2c0-0.2,0-0.4-0.1-0.7c0,0,0-0.1,0-0.1
		c0-0.2,0-0.5,0-0.7c0-0.1,0-0.1,0-0.2c0-0.2,0-0.3,0.1-0.5c0-0.1,0-0.1,0-0.2c0-0.1,0.1-0.3,0.1-0.4c0-0.1,0-0.1,0.1-0.2
		c0.1-0.2,0.2-0.4,0.3-0.6l-0.3,0.2l-1.6,2.6c-0.3,0.7-0.5,1.4-0.6,2.2c0,0.8,0.1,1.8,0.4,2.9c0.3,1.1,0.7,2.4,1.4,3.8
		c0.5,1.2,1.1,2.5,1.9,3.9l-3.4-1.6c-0.1,0.3-0.2,0.7-0.2,1l4.3,2c0.8,1.4,1.4,2.8,2,4.1c0,0.1,0.1,0.2,0.1,0.3l-7.3-3.6
		c-1.3-0.7-4.1-2.3-4.7-2.7l-0.1,0c0,0.4,0,0.9,0.1,1.5l12.6,6.3c0.3,0.8,0.6,1.5,0.8,2.2c0.2,0.5,0.3,1.1,0.4,1.6l-13.4-6.6
		c-0.1-0.2-0.2-0.5-0.2-0.7c0,0,0-0.1,0-0.1c-0.1-0.4-0.2-0.8-0.3-1.2c0-0.1-0.1-0.2-0.1-0.3c0-0.1,0-0.2-0.1-0.3
		c0-0.2-0.1-0.4-0.1-0.5c0-0.1,0-0.2,0-0.2c0-0.2,0-0.4-0.1-0.7c0,0,0-0.1,0-0.1c0-0.2,0-0.5,0-0.7c0-0.1,0-0.1,0-0.2
		c0-0.2,0-0.3,0.1-0.5c0-0.1,0-0.1,0-0.2c0-0.1,0.1-0.3,0.1-0.4c0-0.1,0-0.1,0.1-0.2c0.1-0.2,0.2-0.4,0.3-0.6l-0.4,0.4l-1.6,2.6
		c-0.3,0.7-0.5,1.4-0.6,2.2c0,0.8,0.1,1.8,0.4,2.9c0.3,1.1,0.7,2.3,1.4,3.8c0.6,1.4,1.4,3.1,2.4,4.9c0.2,0.4,0.4,0.8,0.7,1.2
		c-0.4,0-0.8,0-1.2,0c-0.5,0-1.1,0-1.6,0c-0.1,0-0.3,0-0.4,0c-0.4,0-0.9,0-1.3,0c0,0-0.1,0-0.2,0c0,0,0,0,0,0c-0.4,0-0.8,0-1.1,0
		c-0.1,0-0.1,0-0.2,0c-0.1,0-0.2,0-0.3,0c-0.3,0-0.7,0-1,0.1c-0.1,0-0.1,0-0.2,0c0,0,0,0-0.1,0c-0.4,0-0.7,0.1-1.1,0.1
		c-0.1,0-0.2,0-0.2,0c-0.1,0-0.3,0-0.4,0.1c-0.1,0-0.2,0-0.4,0.1c0,0-0.1,0-0.2,0c0,0-0.1,0-0.1,0c-0.3,0.1-0.6,0.1-0.9,0.2
		c-0.1,0-0.1,0-0.1,0c-0.2,0.1-0.5,0.1-0.7,0.2c0,0-0.1,0-0.1,0c0,0-0.1,0-0.1,0c0,0-0.1,0-0.1,0c0,0-0.1,0-0.1,0
		c-0.1,0-0.1,0-0.2,0.1c0,0-0.1,0-0.1,0.1c-0.1,0-0.2,0.1-0.2,0.1c0,0-0.1,0-0.1,0.1c-0.1,0-0.1,0-0.1,0.1c-0.1,0-0.1,0.1-0.2,0.1
		c0,0-0.1,0-0.1,0c-0.1,0-0.1,0.1-0.2,0.1c-0.1,0-0.1,0.1-0.2,0.1c0,0,0,0-0.1,0c0,0,0,0-0.1,0c0,0,0,0-0.1,0c0,0,0,0-0.1,0
		c0,0,0,0-0.1,0c-0.1,0.1-0.2,0.1-0.3,0.2c0.1-0.1,0.2-0.2,0.4-0.2c0,0,0,0,0.1,0c-0.5,0.3-0.9,0.6-1.2,1c0,0,0,0,0,0l-0.3,0.2
		l-1.6,2.6c0,0.1,0,0.1-0.1,0.2l-0.1,0.1l0,0c-0.3,0.6-0.4,1.3-0.5,2c0,0.8,0.1,1.8,0.4,2.9c0.2,0.8,0.5,1.6,0.9,2.6c0,0,0,0,0,0
		l0,0c-0.1,0-0.1,0-0.2,0c0,0,0,0-0.1,0c-0.1,0-0.2,0-0.4,0c-0.1,0-0.1,0-0.2,0c-0.3,0-0.6,0.1-0.9,0.1c0,0,0,0-0.1,0
		c-0.1,0-0.2,0-0.2,0c-3,0.6-5.9,1.8-7.7,2.7v0c0,0,0,0,0,0c-0.5,0.2-0.9,0.5-1.2,0.6c-1.4,0.7-2.5,1-3.2,1.2
		c-1.2,0.3-2.4,0.5-3.4,0.5c-1.1,0-2-0.2-2.8-0.7l2.6,1.7c0.6,0.4,1.4,0.6,2.2,0.7c0.4,0,0.7,0,1.1,0c0.3,0,0.7,0,1-0.1l0,0
		c0,0,0.2,0,0.4-0.1c0.1,0,0.2,0,0.3-0.1l0,0c0.5-0.1,1.3-0.3,1.9-0.7c0.6-0.3,1.2-0.6,1.7-0.9l13.9,7l0,0c0.1,0.6,0.2,1.2,0.3,1.8
		c0,0-0.7,0.4-1.3,0.8l-15.6-7.7c-0.5,0.2-1.2,0.3-1.5,0.3l16,8c-1,0.6-1.9,1.1-2.8,1.5l-8.8-4.4l-1,0.6l8.6,4.3
		c-5.8,2.4-8.7,1.3-8.7,1.3l0,0v0l0,0l0.4,0.4c0,0,0,0,0,0c0.2,0.2,1.8,1.3,5.3,1c1.5-0.1,3-0.5,4.2-1c0.6-0.2,1.1-0.5,1.6-0.8
		c2.1-1,2.8-2.4,2.8-2.4s2-3.2,2.2-4.6c0.2-1.4,0.2-2.5-1-6.1l-1.1-2.7l0,0l0,0l0,0l0,0c0.2,0,0.4,0,0.7,0c2.1,0,3.9,0,5.5-0.1
		c1.6-0.1,2.9-0.3,4-0.5c1.1-0.3,2-0.6,2.7-1c0.7-0.4,1.3-0.9,1.7-1.6l1.6-2.6l0,0l0,0c0.1-0.2,0.2-0.4,0.2-0.6c0,0,0,0,0,0.1
		l0.3-0.8c0.1-0.2,0.2-0.4,0.2-0.7c0,0,0-0.1,0-0.1c0.1-0.2,0.1-0.5,0.1-0.7c0,0,0,0,0-0.1c0-0.1,0-0.1,0-0.2c0,0,0-0.1,0-0.1
		c0,0,0-0.1,0-0.1c0-0.1,0-0.2,0-0.3c0-0.1,0-0.1,0-0.2c0-0.1,0-0.3,0-0.4c0-0.1,0-0.1,0-0.2c0-0.2-0.1-0.4-0.1-0.6c0,0,0,0,0,0
		c0,0,0-0.1,0-0.1c0-0.2-0.1-0.4-0.1-0.6c0,0,0,0,0-0.1c0-0.1,0-0.1-0.1-0.2c0-0.2-0.1-0.3-0.1-0.5c0-0.1-0.1-0.2-0.1-0.3
		c-0.1-0.2-0.1-0.3-0.2-0.5c0-0.1-0.1-0.2-0.1-0.3c0,0,0,0,0-0.1c0.8-0.1,1.4-0.2,2.1-0.4c1.1-0.3,2-0.6,2.7-1
		c0.7-0.4,1.3-0.9,1.7-1.6l1.6-2.6l0,0l0,0c0.1-0.3,0.2-0.5,0.3-0.8c0,0,0,0,0,0c0.1-0.2,0.1-0.4,0.2-0.6c0.1-0.2,0.1-0.4,0.2-0.7
		c0,0,0-0.1,0-0.1c0-0.2,0.1-0.5,0.1-0.7c0,0,0,0,0-0.1c0-0.1,0-0.1,0-0.2C219.9,100.7,219.9,100.7,219.9,100.7z M207.8,109.8
		c0.1,0.2,0.2,0.3,0.2,0.5c0.3,0.7,0.6,1.3,0.8,1.9l-4.9-2.3C205.3,109.8,206.6,109.8,207.8,109.8z M194.3,108.2
		c0.1,0,0.2-0.1,0.2-0.1c0,0,0,0,0,0c-0.2,0-0.3,0.1-0.5,0.1C194.2,108.2,194.2,108.2,194.3,108.2z M193.5,108.5
		c0.1,0,0.1-0.1,0.2-0.1c0,0,0.1,0,0.1,0C193.7,108.4,193.6,108.5,193.5,108.5C193.5,108.5,193.5,108.5,193.5,108.5z M193.1,108.7
		c0.1,0,0.1-0.1,0.2-0.1c-0.1,0.1-0.3,0.1-0.4,0.2C192.9,108.8,193,108.7,193.1,108.7z M182.3,125.2c1.4-0.6,2.8-1,4-1.3l7.2,3.4
		c0.4,0.8,0.9,2.2,1.4,4.1L182.3,125.2z M192.8,125.9l-4.9-2.3c0.8-0.1,1.5-0.2,2-0.3c0.4,0,0.9-0.1,1.4-0.1c0,0,0.1,0,0.1,0l0,0
		l0,0c0,0,0,0,0,0l0,0l0,0c0,0,0,0,0,0l0,0L192.8,125.9z M197.2,120.2c-0.6,0-1.1,0-1.6,0c-0.2,0-0.3,0-0.5,0c-0.4,0-0.7,0-1.1,0
		c-0.1,0-0.2,0-0.3,0c-0.1,0-0.1,0-0.2,0c-0.1,0-0.2,0-0.4,0c0,0,0,0,0-0.1c-0.2-0.3-0.3-0.7-0.5-1c0-0.1-0.1-0.1-0.1-0.2
		c-0.2-0.4-0.4-0.9-0.6-1.3c0,0,0,0,0,0L197.2,120.2C197.3,120.2,197.3,120.2,197.2,120.2z M204.2,119.9c-0.2,0-0.5,0.1-0.7,0.1
		c-0.2,0-0.3,0-0.5,0c-0.2,0-0.5,0-0.8,0.1c-0.2,0-0.3,0-0.5,0c-0.3,0-0.6,0-0.9,0c-0.2,0-0.4,0-0.5,0c-0.3,0-0.6,0-0.9,0l-7.9-3.9
		c0-0.1-0.1-0.1-0.1-0.2c0,0,0-0.1,0-0.1c-0.1-0.4-0.2-0.8-0.3-1.2c0-0.1-0.1-0.2-0.1-0.3c0-0.1,0-0.2-0.1-0.3
		c0-0.2-0.1-0.4-0.1-0.5c0-0.1,0-0.2,0-0.2c0-0.1,0-0.2,0-0.2l13.6,6.7C204.4,119.9,204.3,119.9,204.2,119.9z M209.3,118.5
		c0,0-0.1,0-0.1,0.1c-0.1,0.1-0.3,0.1-0.4,0.2c-0.1,0-0.1,0.1-0.2,0.1c-0.2,0.1-0.3,0.1-0.5,0.2c0,0-0.1,0-0.1,0
		c-0.2,0.1-0.4,0.1-0.6,0.2c-0.2,0.1-0.4,0.1-0.7,0.2c-0.1,0-0.1,0-0.2,0c-0.1,0-0.3,0.1-0.5,0.1l-15.3-7.6c0,0,0-0.1,0-0.1
		c0-0.1,0-0.1,0-0.2c0,0,0,0,0-0.1c0.1-0.1,0.2-0.1,0.3-0.2c0.7-0.4,1.7-0.7,2.8-1c0.1,0,0.1,0,0.2,0l15.6,7.8
		C209.6,118.3,209.5,118.4,209.3,118.5z M195.7,110.2c0.7-0.1,1.4-0.2,2.2-0.2c1.1-0.1,2.3-0.1,3.7-0.1l7.6,3.7
		c0.1,0.2,0.1,0.4,0.2,0.6c0.3,1.2,0.5,2.2,0.5,3.2L195.7,110.2z M210.4,109.6L210.4,109.6C210.4,109.6,210.4,109.6,210.4,109.6
		C210.4,109.6,210.4,109.6,210.4,109.6z M215.4,106.1c-0.2,0.1-0.4,0.1-0.7,0.2c-0.1,0-0.1,0-0.2,0c-0.3,0.1-0.6,0.1-0.9,0.2
		c-0.1,0-0.2,0-0.3,0c-0.2,0-0.5,0.1-0.8,0.1c-0.1,0-0.3,0-0.4,0c-0.2,0-0.5,0.1-0.7,0.1c-0.2,0-0.3,0-0.5,0c-0.2,0-0.5,0-0.8,0.1
		c-0.1,0-0.2,0-0.4,0c0,0,0,0,0,0c0-0.1-0.1-0.2-0.1-0.3c-0.2-0.4-0.3-0.7-0.5-1.1c0,0,0,0,0,0c0,0,0,0,0-0.1
		c-0.1-0.2-0.2-0.4-0.3-0.5c-0.1-0.2-0.2-0.4-0.3-0.7c0,0,0,0,0,0c0,0,0,0,0,0c-0.1-0.2-0.2-0.4-0.3-0.6c-0.1-0.2-0.3-0.5-0.4-0.7
		c-0.1-0.2-0.2-0.4-0.3-0.6L215.4,106.1C215.4,106.1,215.4,106.1,215.4,106.1z M218,104.8c-0.1,0.1-0.2,0.1-0.2,0.2c0,0,0,0,0,0
		c-0.1,0.1-0.3,0.2-0.5,0.3c0,0-0.1,0-0.1,0.1c-0.1,0.1-0.3,0.1-0.4,0.2c0,0-0.1,0-0.1,0l-10.1-5c-0.2-0.5-0.5-0.9-0.7-1.4
		c-0.2-0.3-0.3-0.7-0.5-1c0-0.1-0.1-0.1-0.1-0.2c-0.1-0.3-0.2-0.6-0.4-0.9l13,6.4c0,0.2,0,0.3,0,0.5
		C218.1,104.3,218.1,104.6,218,104.8z"/>
</g>
</svg>
